# xmcd CD database file
#
# Track frame offsets:
#	300
#	21884
#	40197
#	59583
#	81999
#
# Disc length: 1350 seconds
#
# Revision: 0
# Processed by: cddbd v1.5.2PL0 Copyright (c) Steve Scherf et al.
# Submitted via: CDex 1.99.1
#
DISCID=3e054205
DTITLE=Vicarage Lane - Too Many Years (EP)
DYEAR=2018
DGENRE=Country
TTITLE0=Too Many Years
TTITLE1=Rendezvous
TTITLE2=What About You
TTITLE3=Whiskey and Wine
TTITLE4=Coming Home
EXTD=YEAR: 2018
EXTT0=
EXTT1=
EXTT2=
EXTT3=
EXTT4=
PLAYORDER=
